<svg width="21" height="21" viewBox="0 0 21 21" fill="none" xmlns="http://www.w3.org/2000/svg">
<path d="M3.08084 0H17.9192C19.6207 0 21 1.38177 21 3.08627V16.817V19.9271C21 20.8818 19.8472 21.3592 19.1743 20.6832L15.3256 16.817H3.08084C1.37934 16.817 0 15.4353 0 13.7308V3.08627C0 1.38177 1.37934 0 3.08084 0Z" fill="#666666"/>
<path d="M3.9375 5.0983C3.9375 4.45721 4.42229 3.9375 5.02031 3.9375H15.9797C16.5777 3.9375 17.0625 4.45721 17.0625 5.0983C17.0625 5.7394 16.5777 6.25911 15.9797 6.25911H5.02031C4.42229 6.25911 3.9375 5.7394 3.9375 5.0983Z" fill="#ECECEC"/>
<path d="M3.9375 9.7767C3.9375 9.1356 4.42229 8.61589 5.02031 8.61589H11.6156C12.2136 8.61589 12.6984 9.1356 12.6984 9.7767C12.6984 10.4178 12.2136 10.9375 11.6156 10.9375H5.02031C4.42229 10.9375 3.9375 10.4178 3.9375 9.7767Z" fill="#ECECEC"/>
<path d="M3.9375 5.0983C3.9375 4.45721 4.42229 3.9375 5.02031 3.9375H15.9797C16.5777 3.9375 17.0625 4.45721 17.0625 5.0983C17.0625 5.7394 16.5777 6.25911 15.9797 6.25911H5.02031C4.42229 6.25911 3.9375 5.7394 3.9375 5.0983Z" fill="#ECECEC"/>
</svg>
