<svg width="24" height="24" viewBox="0 0 24 24" fill="none" xmlns="http://www.w3.org/2000/svg">
<path d="M21 8.00001H3.49999V6.50001L17.5 4.80105V6.50001H21L21 3.94983C21 2.27223 19.6635 1.09486 18.0315 1.33125L2.96999 3.51823C1.33649 3.75614 -1.31534e-05 5.32241 -1.31534e-05 7L-7.82739e-06 20.9498C-7.82739e-06 21.7588 0.316063 22.5346 0.878672 23.1066C1.44128 23.6786 2.20434 24 2.99999 24H21C21.7956 24 22.5587 23.6786 23.1213 23.1066C23.6839 22.5346 24 21.7588 24 20.9498V11.0502C24 10.2412 23.6839 9.4654 23.1213 8.89338C22.5587 8.32136 21.7956 8.00001 21 8.00001ZM18.7485 18.2876C18.4529 18.2875 18.1603 18.2282 17.8872 18.1132C17.6142 17.9981 17.3661 17.8294 17.1572 17.6168C16.9483 17.4043 16.7826 17.152 16.6695 16.8743C16.5565 16.5966 16.4984 16.299 16.4985 15.9985C16.4986 15.698 16.5569 15.4004 16.6701 15.1228C16.7833 14.8452 16.9492 14.593 17.1583 14.3806C17.3673 14.1681 17.6155 13.9997 17.8886 13.8848C18.1617 13.7698 18.4544 13.7107 18.75 13.7108C19.3469 13.7111 19.9193 13.9523 20.3413 14.3816C20.7633 14.8109 21.0002 15.3931 21 16C20.9998 16.6069 20.7625 17.1889 20.3402 17.6179C19.918 18.0469 19.3454 18.2878 18.7485 18.2876Z" fill="black"/>
</svg>
