<svg width="25" height="24" viewBox="0 0 25 24" fill="none" xmlns="http://www.w3.org/2000/svg">
<path fill-rule="evenodd" clip-rule="evenodd" d="M22.9096 4.63573C23.3915 4.85971 24.3509 5.67842 24.3331 7.16135C24.3153 8.64428 24.3257 14.6533 24.3331 17.4724C24.2812 17.9976 23.866 19.1777 22.6204 19.6968C21.3749 20.2158 15.9329 22.6317 13.3676 23.7748C13.0562 23.9447 12.1888 24.1826 11.2101 23.7748L2.04624 19.6968C1.47446 19.326 0.331417 18.3621 0.333584 17.4724C0.340998 14.6841 0.351378 8.71843 0.333584 7.16135C0.31579 5.60427 1.23069 4.82882 1.69037 4.63573C4.62636 3.26865 10.6674 0.460347 11.3435 0.163761C12.0197 -0.132826 12.9302 0.040183 13.3009 0.163761L16.723 1.64754L5.83333 7C5.57383 7.13903 5.10863 7.72437 5.10863 8.31754V12.2798L8.53637 13.7531V9.88362C8.50671 9.59785 8.62157 8.81512 9.33333 8.5C10.0451 8.18488 16.8364 4.82878 20.1431 3.19013L22.9096 4.63573ZM22.8428 17.0785L14.1016 20.9016C13.8333 21 13.7885 20.8679 13.7885 20.7L13.8333 18.35C13.8333 18.1646 13.9531 18.0309 14.0346 18C16.8965 16.7256 22.5757 14.1815 22.7536 14.1073C22.9316 14.0332 23.0653 14.1882 23.0653 14.25V16.6846C23.0653 16.8514 22.917 17.0167 22.8428 17.0785Z" fill="#2C2C2C"/>
</svg>
